# xmcd
#
# Track frame offsets: 
#        150
#        9244
#        21675
#        39311
#        56740
#        72431
#        93923
#        106461
#
# Disc length: 1570 seconds
#
# Revision: 0
# Processed by: cddbd v1.5.2PL0 Copyright (c) Steve Scherf et al.
# Submitted via: ExactAudioCopy v1.0b3
#
DISCID=65062008
DTITLE=Yvonne Moore - Blue Wisdom Vol. 2
DYEAR=2012
DGENRE=Blues
TTITLE0=Another Man Done Gone
TTITLE1=I'm Not Talking
TTITLE2=Jack O'Diamond
TTITLE3=That's How Strong My Love Is
TTITLE4=I Ain't Got Nothing Yet (Them That Got)
TTITLE5=That's What My Man Is For
TTITLE6=Shame And Scandal
TTITLE7=If You Live
EXTD=
EXTT0=
EXTT1=
EXTT2=
EXTT3=
EXTT4=
EXTT5=
EXTT6=
EXTT7=
PLAYORDER=
